<?xml version="1.0" encoding="utf-8"?>
<!-- Generator: Adobe Illustrator 22.1.0, SVG Export Plug-In . SVG Version: 6.00 Build 0)  -->
<svg version="1.1" id="Layer_1" xmlns="http://www.w3.org/2000/svg" xmlns:xlink="http://www.w3.org/1999/xlink" x="0px" y="0px"
	 viewBox="0 0 54.8 84" style="enable-background:new 0 0 54.8 84;" xml:space="preserve">
<style type="text/css">
	.st0{opacity:0.43;}
	.st1{fill:#FFCB41;}
	.st2{fill:none;}
</style>
<g>
	<g class="st0">
		<path d="M27.5,0.8c-14.8,0-26.8,13-26.8,29.1c0,21.8,26.8,54,26.8,54s26.8-32.2,26.8-54C54.3,13.8,42.3,0.8,27.5,0.8z M27.5,40.3
			c-5.3,0-9.6-4.6-9.6-10.4s4.3-10.4,9.6-10.4s9.6,4.6,9.6,10.4S32.8,40.3,27.5,40.3z"/>
	</g>
	<g>
		<path class="st1" d="M26.8,0.1c-14.8,0-26.8,13-26.8,29c0,21.8,26.8,54,26.8,54s26.8-32.2,26.8-54C53.6,13.1,41.6,0.1,26.8,0.1z
			 M26.8,39.5c-5.3,0-9.6-4.6-9.6-10.4s4.3-10.4,9.6-10.4s9.6,4.6,9.6,10.4S32,39.5,26.8,39.5z"/>
	</g>
</g>
<path class="st2" d="M14.9,29.9h24v24h-24V29.9z"/>
</svg>
