<?xml version="1.0" encoding="utf-8"?>
<!-- Generator: Adobe Illustrator 22.1.0, SVG Export Plug-In . SVG Version: 6.00 Build 0)  -->
<svg version="1.1" id="Layer_1" xmlns="http://www.w3.org/2000/svg" xmlns:xlink="http://www.w3.org/1999/xlink" x="0px" y="0px"
	 viewBox="0 0 36 55.4" style="enable-background:new 0 0 36 55.4;" xml:space="preserve">
<style type="text/css">
	.st0{opacity:0.43;}
	.st1{fill:#FFCB41;}
	.st2{fill:none;}
</style>
<g>
	<g class="st0">
		<path d="M18.7,1.2C9.6,1.2,2.2,9.6,2.2,20c0,14.2,16.4,35.1,16.4,35.1S35.1,34.2,35.1,20C35.1,9.6,27.7,1.2,18.7,1.2z M18.7,26.9
			c-3.3,0-5.9-3-5.9-6.7s2.6-6.7,5.9-6.7s5.9,3,5.9,6.7S21.8,26.9,18.7,26.9z"/>
	</g>
	<g>
		<path class="st1" d="M17.7,0.3C8.5,0.3,1.3,8.7,1.3,19.1c0,14.2,16.4,35,16.4,35s16.4-20.9,16.4-35C34.2,8.7,26.8,0.3,17.7,0.3z
			 M17.7,25.9c-3.3,0-5.9-3-5.9-6.7s2.6-6.7,5.9-6.7s5.9,3,5.9,6.7S20.9,25.9,17.7,25.9z"/>
	</g>
</g>
<path class="st2" d="M5.6,15.6h24v24h-24C5.6,39.6,5.6,15.6,5.6,15.6z"/>
</svg>
