<?xml version="1.0" encoding="utf-8"?>
<!-- Generator: Adobe Illustrator 22.1.0, SVG Export Plug-In . SVG Version: 6.00 Build 0)  -->
<svg version="1.1" id="Layer_1" xmlns="http://www.w3.org/2000/svg" xmlns:xlink="http://www.w3.org/1999/xlink" x="0px" y="0px"
	 viewBox="0 0 27.4 42" style="enable-background:new 0 0 27.4 42;" xml:space="preserve">
<style type="text/css">
	.st0{opacity:0.43;}
	.st1{fill:#FFCB41;}
	.st2{fill:none;}
</style>
<g>
	<g class="st0">
		<path d="M14,1.1C7.1,1.1,1.5,7.5,1.5,15.4C1.5,26.2,14,42.1,14,42.1s12.5-15.9,12.5-26.7C26.5,7.5,20.9,1.1,14,1.1z M14,20.6
			c-2.5,0-4.5-2.3-4.5-5.1s2-5.1,4.5-5.1s4.5,2.3,4.5,5.1S16.4,20.6,14,20.6z"/>
	</g>
	<g>
		<path class="st1" d="M13.3,0.4C6.3,0.4,0.8,6.8,0.8,14.7c0,10.8,12.5,26.6,12.5,26.6s12.5-15.9,12.5-26.6
			C25.8,6.8,20.2,0.4,13.3,0.4z M13.3,19.9c-2.5,0-4.5-2.3-4.5-5.1s2-5.1,4.5-5.1s4.5,2.3,4.5,5.1S15.7,19.9,13.3,19.9z"/>
	</g>
</g>
<path class="st2" d="M1.3,8.9h24v24h-24V8.9z"/>
</svg>
