<?xml version="1.0" encoding="utf-8"?>
<!-- Generator: Adobe Illustrator 22.1.0, SVG Export Plug-In . SVG Version: 6.00 Build 0)  -->
<svg version="1.1" id="Layer_1" xmlns="http://www.w3.org/2000/svg" xmlns:xlink="http://www.w3.org/1999/xlink" x="0px" y="0px"
	 viewBox="0 0 73 112" style="enable-background:new 0 0 73 112;" xml:space="preserve">
<style type="text/css">
	.st0{opacity:0.43;}
	.st1{fill:#FFCB41;}
	.st2{fill:none;}
</style>
<g>
	<g class="st0">
		<path d="M37,1.5C17.4,1.5,1.5,18.7,1.5,39.9c0,28.8,35.5,71.4,35.5,71.4s35.5-42.6,35.5-71.4C72.5,18.7,56.7,1.5,37,1.5z M37,53.7
			c-7,0-12.7-6.2-12.7-13.7S30,26.2,37,26.2s12.7,6.2,12.7,13.7S44,53.7,37,53.7z"/>
	</g>
	<g>
		<path class="st1" d="M36.3,0.8C16.7,0.8,0.8,18,0.8,39.2c0,28.8,35.5,71.4,35.5,71.4s35.5-42.6,35.5-71.4
			C71.8,18,55.9,0.8,36.3,0.8z M36.3,53c-7,0-12.7-6.2-12.7-13.7s5.7-13.7,12.7-13.7S49,31.6,49,39.2S43.3,53,36.3,53z"/>
	</g>
</g>
<path class="st2" d="M24.1,43.9h24v24h-24V43.9z"/>
</svg>
