<svg xmlns="http://www.w3.org/2000/svg" xmlns:xlink="http://www.w3.org/1999/xlink" version="1.1" x="0px" y="0px" viewBox="0 0 100 100" style="enable-background:new 0 0 100 100;" xml:space="preserve"><metadata><?xpacket begin="&#65279;" id="W5M0MpCehiHzreSzNTczkc9d"?><x:xmpmeta xmlns:x="adobe:ns:meta/" x:xmptk="Adobe XMP Core 5.6-c111 79.158366, 2015/09/25-01:12:00        "/><?xpacket end="w"?></metadata><path d="M87.5,51.4h-5.3c-0.9,0-1.6-0.7-1.6-1.6c0-0.9,0.7-1.6,1.6-1.6h5.3c0.9,0,1.6,0.7,1.6,1.6C89.1,50.6,88.4,51.4,87.5,51.4z"/><path d="M57.3,51.4H9c-0.9,0-1.6-0.7-1.6-1.6c0-0.9,0.7-1.6,1.6-1.6h48.4c0.9,0,1.6,0.7,1.6,1.6C58.9,50.6,58.2,51.4,57.3,51.4z"/><path d="M69.7,59.1c-5.2,0-9.3-4.2-9.3-9.3c0-5.2,4.2-9.3,9.3-9.3c5.2,0,9.3,4.2,9.3,9.3C79,54.9,74.8,59.1,69.7,59.1z M69.7,43.6  c-3.4,0-6.1,2.8-6.1,6.1c0,3.4,2.8,6.1,6.1,6.1c3.4,0,6.1-2.8,6.1-6.1C75.8,46.4,73.1,43.6,69.7,43.6z"/><path d="M10.2,74h5.3c0.9,0,1.6-0.7,1.6-1.6c0-0.9-0.7-1.6-1.6-1.6h-5.3c-0.9,0-1.6,0.7-1.6,1.6C8.6,73.3,9.3,74,10.2,74z"/><path d="M40.3,74h48.4c0.9,0,1.6-0.7,1.6-1.6c0-0.9-0.7-1.6-1.6-1.6H40.3c-0.9,0-1.6,0.7-1.6,1.6C38.7,73.3,39.4,74,40.3,74z"/><path d="M18.6,72.4c0-5.2,4.2-9.3,9.3-9.3c5.2,0,9.3,4.2,9.3,9.3c0,5.2-4.2,9.3-9.3,9.3C22.8,81.7,18.6,77.5,18.6,72.4z M21.8,72.4  c0,3.4,2.8,6.1,6.1,6.1c3.4,0,6.1-2.8,6.1-6.1c0-3.4-2.8-6.1-6.1-6.1C24.6,66.3,21.8,69,21.8,72.4z"/><path d="M9,28.7h5.3c0.9,0,1.6-0.7,1.6-1.6c0-0.9-0.7-1.6-1.6-1.6H9c-0.9,0-1.6,0.7-1.6,1.6C7.4,28,8.1,28.7,9,28.7z"/><path d="M39.1,28.7h48.4c0.9,0,1.6-0.7,1.6-1.6c0-0.9-0.7-1.6-1.6-1.6H39.1c-0.9,0-1.6,0.7-1.6,1.6C37.5,28,38.2,28.7,39.1,28.7z"/><path d="M17.4,27.1c0-5.2,4.2-9.3,9.3-9.3c5.2,0,9.3,4.2,9.3,9.3c0,5.2-4.2,9.3-9.3,9.3C21.6,36.5,17.4,32.3,17.4,27.1z M20.6,27.1  c0,3.4,2.8,6.1,6.1,6.1c3.4,0,6.1-2.8,6.1-6.1c0-3.4-2.8-6.1-6.1-6.1C23.4,21,20.6,23.7,20.6,27.1z"/></svg>