<svg xmlns="http://www.w3.org/2000/svg" xmlns:xlink="http://www.w3.org/1999/xlink" version="1.1" x="0px" y="0px" viewBox="0 0 100 100" style="enable-background:new 0 0 100 100;" xml:space="preserve">
    <path d="M70.5,32H48.6c-1-2.9-3.8-5-7.1-5s-6,2.1-7.1,5h-4.9c-1.4,0-2.5,1.1-2.5,2.5s1.1,2.5,2.5,2.5h4.9c1,2.9,3.8,5,7.1,5  s6-2.1,7.1-5h21.9c1.4,0,2.5-1.1,2.5-2.5S71.9,32,70.5,32z M41.5,37c-1.4,0-2.5-1.1-2.5-2.5c0-1.4,1.1-2.5,2.5-2.5s2.5,1.1,2.5,2.5  C44,35.9,42.9,37,41.5,37z M27,50c0,1.4,1.1,2.5,2.5,2.5h21.9c1,2.9,3.8,5,7.1,5s6-2.1,7.1-5h4.9c1.4,0,2.5-1.1,2.5-2.5  s-1.1-2.5-2.5-2.5h-4.9c-1-2.9-3.8-5-7.1-5s-6,2.1-7.1,5H29.5C28.1,47.5,27,48.6,27,50z M56,50c0-1.4,1.1-2.5,2.5-2.5S61,48.6,61,50  c0,1.4-1.1,2.5-2.5,2.5S56,51.4,56,50z M70.5,63H48.6c-1-2.9-3.8-5-7.1-5s-6,2.1-7.1,5h-4.9c-1.4,0-2.5,1.1-2.5,2.5s1.1,2.5,2.5,2.5  h4.9c1,2.9,3.8,5,7.1,5s6-2.1,7.1-5h21.9c1.4,0,2.5-1.1,2.5-2.5S71.9,63,70.5,63z M41.5,68c-1.4,0-2.5-1.1-2.5-2.5  c0-1.4,1.1-2.5,2.5-2.5s2.5,1.1,2.5,2.5C44,66.9,42.9,68,41.5,68z"/>
</svg>